<svg width="54" height="36" viewBox="0 0 54 36" fill="none" xmlns="http://www.w3.org/2000/svg">
<path d="M7.71369 28.8918C7.66325 28.8918 7.61173 28.8885 7.55913 28.881C5.1066 28.5268 2.75389 27.7573 0.568617 26.5927C0.0459113 26.3137 -0.152652 25.6632 0.12641 25.1394C0.406546 24.6178 1.05376 24.4192 1.57968 24.6972C3.54385 25.7459 5.65936 26.4371 7.86503 26.7548C8.45213 26.8396 8.85892 27.3838 8.7752 27.9709C8.69792 28.5064 8.23854 28.8918 7.71369 28.8918Z" fill="url(#paint0_linear_4119_173)"/>
<path d="M45.9534 28.8907C45.4285 28.8907 44.9691 28.5054 44.8918 27.9709C44.8081 27.3838 45.2149 26.8396 45.802 26.7548C48.0088 26.4371 50.1232 25.7459 52.0874 24.6972C52.6144 24.4192 53.2605 24.6178 53.5406 25.1394C53.8197 25.6621 53.6211 26.3137 53.0984 26.5927C50.9132 27.7573 48.5604 28.5268 46.1079 28.881C46.0553 28.8875 46.0038 28.8907 45.9534 28.8907Z" fill="url(#paint1_linear_4119_173)"/>
<path d="M34.7261 19.256C34.5244 19.256 34.3215 19.1991 34.1412 19.0821C33.6442 18.758 33.5036 18.0936 33.8278 17.5967C35.3487 15.2643 37.9182 13.8712 40.7024 13.8712C41.2959 13.8712 41.7757 14.3509 41.7757 14.9445C41.7757 15.538 41.2959 16.0178 40.7024 16.0178C38.6459 16.0178 36.7483 17.046 35.6267 18.7687C35.4217 19.0843 35.0782 19.256 34.7261 19.256Z" fill="url(#paint2_linear_4119_173)"/>
<path d="M43.0835 16.0173C39.2786 16.0173 36.0651 12.8038 36.0651 9C36.0651 5.19616 39.2786 1.98265 43.0835 1.98265C46.8873 1.98265 50.1008 5.19616 50.1008 9C50.1008 12.8038 46.8873 16.0173 43.0835 16.0173ZM43.0835 4.12928C40.4431 4.12928 38.2117 6.35964 38.2117 9C38.2117 11.6404 40.4431 13.8707 43.0835 13.8707C45.7238 13.8707 47.9542 11.6404 47.9542 9C47.9542 6.35964 45.7238 4.12928 43.0835 4.12928Z" fill="url(#paint3_linear_4119_173)"/>
<path d="M52.5946 23.1487C52.001 23.1487 51.5213 22.669 51.5213 22.0754C51.5213 18.7342 48.8025 16.0155 45.4613 16.0155C44.8678 16.0155 44.388 15.5357 44.388 14.9422C44.388 14.3486 44.8678 13.8688 45.4613 13.8688C49.9864 13.8688 53.6679 17.5514 53.6679 22.0754C53.6679 22.6679 53.1881 23.1487 52.5946 23.1487Z" fill="url(#paint4_linear_4119_173)"/>
<path d="M45.4598 16.0178H40.704C40.1104 16.0178 39.6306 15.538 39.6306 14.9445C39.6306 14.3509 40.1104 13.8712 40.704 13.8712H45.4598C46.0534 13.8712 46.5331 14.3509 46.5331 14.9445C46.5331 15.538 46.0523 16.0178 45.4598 16.0178Z" fill="url(#paint5_linear_4119_173)"/>
<path d="M52.594 26.7194C52.0004 26.7194 51.5207 26.2397 51.5207 25.6461V22.0795C51.5207 21.4859 52.0004 21.0062 52.594 21.0062C53.1875 21.0062 53.6673 21.4859 53.6673 22.0795V25.6461C53.6673 26.2397 53.1875 26.7194 52.594 26.7194Z" fill="url(#paint6_linear_4119_173)"/>
<path d="M14.1522 27.5111C13.5586 27.5111 13.0789 27.0313 13.0789 26.4378C13.0789 20.6011 17.8272 15.8538 23.6629 15.8538C24.2564 15.8538 24.7362 16.3336 24.7362 16.9271C24.7362 17.5207 24.2564 18.0005 23.6629 18.0005C19.01 18.0005 15.2255 21.785 15.2255 26.4378C15.2255 27.0313 14.7447 27.5111 14.1522 27.5111Z" fill="url(#paint7_linear_4119_173)"/>
<path d="M30.0041 18.0003L23.6629 18.0005C23.0693 18.0005 22.5896 17.5205 22.5896 16.927C22.5896 16.3334 23.0693 15.8538 23.6629 15.8538L30.0041 15.8537C30.5976 15.8537 31.0774 16.3334 31.0774 16.927C31.0774 17.5205 30.5976 18.0003 30.0041 18.0003Z" fill="url(#paint8_linear_4119_173)"/>
<path d="M18.9402 19.256C18.5893 19.256 18.2458 19.0843 18.0397 18.7687C16.917 17.0471 15.0205 16.0178 12.964 16.0178C12.3705 16.0178 11.8907 15.538 11.8907 14.9445C11.8907 14.3509 12.3705 13.8712 12.964 13.8712C15.7493 13.8712 18.3177 15.2643 19.8386 17.5967C20.1628 18.0936 20.0222 18.758 19.5252 19.0821C19.3438 19.1991 19.141 19.256 18.9402 19.256Z" fill="url(#paint9_linear_4119_173)"/>
<path d="M14.1522 32.2668C13.5586 32.2668 13.0789 31.787 13.0789 31.1934V26.4378C13.0789 25.8443 13.5586 25.3643 14.1522 25.3643C14.7457 25.3643 15.2255 25.8443 15.2255 26.4378V31.1934C15.2255 31.787 14.7447 32.2668 14.1522 32.2668Z" fill="url(#paint10_linear_4119_173)"/>
<path d="M26.8337 17.9995C21.9554 17.9995 17.8339 13.878 17.8339 8.99977C17.8339 4.12154 21.9554 0 26.8337 0C31.7119 0 35.8334 4.12154 35.8334 8.99977C35.8334 13.878 31.7119 17.9995 26.8337 17.9995ZM26.8337 2.14663C23.1189 2.14663 19.9805 5.28502 19.9805 8.99977C19.9805 12.7145 23.1189 15.8529 26.8337 15.8529C30.5484 15.8529 33.6868 12.7145 33.6868 8.99977C33.6868 5.28502 30.5484 2.14663 26.8337 2.14663Z" fill="url(#paint11_linear_4119_173)"/>
<path d="M39.5159 27.5111C38.9224 27.5111 38.4426 27.0313 38.4426 26.4378C38.4426 21.785 34.6581 18.0005 30.0053 18.0005C29.4117 18.0005 28.9319 17.5207 28.9319 16.9271C28.9319 16.3336 29.4117 15.8538 30.0053 15.8538C35.842 15.8538 40.5892 20.6022 40.5892 26.4378C40.5892 27.0313 40.1095 27.5111 39.5159 27.5111Z" fill="url(#paint12_linear_4119_173)"/>
<path d="M39.5161 32.2668C38.9225 32.2668 38.4428 31.787 38.4428 31.1934L38.4426 26.4378C38.4426 25.8443 38.9225 25.3643 39.5161 25.3643C40.1096 25.3643 40.5892 25.8443 40.5892 26.4378L40.5894 31.1934C40.5894 31.787 40.1096 32.2668 39.5161 32.2668Z" fill="url(#paint13_linear_4119_173)"/>
<path d="M26.8339 35.4438C22.3045 35.4438 17.7762 34.3426 13.6471 32.1412C13.1244 31.8611 12.9258 31.2118 13.2049 30.688C13.485 30.1663 14.1312 29.9678 14.6582 30.2458C22.283 34.3126 31.3869 34.3126 39.0107 30.2458C39.5366 29.9678 40.1849 30.1663 40.464 30.688C40.743 31.2107 40.5444 31.8611 40.0217 32.1412C35.8916 34.3415 31.3633 35.4438 26.8339 35.4438Z" fill="url(#paint14_linear_4119_173)"/>
<path d="M10.585 16.0173C6.78119 16.0173 3.56768 12.8038 3.56768 9C3.56768 5.19616 6.78119 1.98265 10.585 1.98265C14.3889 1.98265 17.6024 5.19616 17.6024 9C17.6024 12.8038 14.3889 16.0173 10.585 16.0173ZM10.585 4.12928C7.94467 4.12928 5.71432 6.35964 5.71432 9C5.71432 11.6404 7.94467 13.8707 10.585 13.8707C13.2254 13.8707 15.4557 11.6404 15.4557 9C15.4557 6.35964 13.2254 4.12928 10.585 4.12928Z" fill="url(#paint15_linear_4119_173)"/>
<path d="M1.07384 23.1487C0.480299 23.1487 0.00052584 22.669 0.00052584 22.0754C0.00052584 17.5503 3.68308 13.8688 8.20711 13.8688C8.80065 13.8688 9.28043 14.3486 9.28043 14.9422C9.28043 15.5357 8.80065 16.0155 8.20711 16.0155C4.86587 16.0144 2.14716 18.7331 2.14716 22.0754C2.14716 22.6679 1.66739 23.1487 1.07384 23.1487Z" fill="url(#paint16_linear_4119_173)"/>
<path d="M12.964 16.0178H8.20891C7.61536 16.0178 7.13559 15.538 7.13559 14.9445C7.13559 14.3509 7.61536 13.8712 8.20891 13.8712H12.964C13.5576 13.8712 14.0381 14.3509 14.0381 14.9445C14.0381 15.538 13.5576 16.0178 12.964 16.0178Z" fill="url(#paint17_linear_4119_173)"/>
<path d="M1.07384 26.7199C0.480299 26.7199 0.00052584 26.2401 0.00052584 25.6466V22.0799C0.00052584 21.4864 0.480299 21.0066 1.07384 21.0066C1.66739 21.0066 2.14716 21.4864 2.14716 22.0799V25.6466C2.14716 26.2401 1.66739 26.7199 1.07384 26.7199Z" fill="url(#paint18_linear_4119_173)"/>
<defs>
<linearGradient id="paint0_linear_4119_173" x1="0.000549316" y1="23.8644" x2="22.5" y2="23.8644" gradientUnits="userSpaceOnUse">
<stop stop-color="#FFF6E0"/>
<stop offset="1" stop-color="#F2B705"/>
</linearGradient>
<linearGradient id="paint1_linear_4119_173" x1="0.000549316" y1="23.8644" x2="22.5" y2="23.8644" gradientUnits="userSpaceOnUse">
<stop stop-color="#FFF6E0"/>
<stop offset="1" stop-color="#F2B705"/>
</linearGradient>
<linearGradient id="paint2_linear_4119_173" x1="0.000549316" y1="23.8644" x2="22.5" y2="23.8644" gradientUnits="userSpaceOnUse">
<stop stop-color="#FFF6E0"/>
<stop offset="1" stop-color="#F2B705"/>
</linearGradient>
<linearGradient id="paint3_linear_4119_173" x1="0.000549316" y1="23.8644" x2="22.5" y2="23.8644" gradientUnits="userSpaceOnUse">
<stop stop-color="#FFF6E0"/>
<stop offset="1" stop-color="#F2B705"/>
</linearGradient>
<linearGradient id="paint4_linear_4119_173" x1="0.000549316" y1="23.8644" x2="22.5" y2="23.8644" gradientUnits="userSpaceOnUse">
<stop stop-color="#FFF6E0"/>
<stop offset="1" stop-color="#F2B705"/>
</linearGradient>
<linearGradient id="paint5_linear_4119_173" x1="0.000549316" y1="23.8644" x2="22.5" y2="23.8644" gradientUnits="userSpaceOnUse">
<stop stop-color="#FFF6E0"/>
<stop offset="1" stop-color="#F2B705"/>
</linearGradient>
<linearGradient id="paint6_linear_4119_173" x1="0.000549316" y1="23.8644" x2="22.5" y2="23.8644" gradientUnits="userSpaceOnUse">
<stop stop-color="#FFF6E0"/>
<stop offset="1" stop-color="#F2B705"/>
</linearGradient>
<linearGradient id="paint7_linear_4119_173" x1="0.000549316" y1="23.8644" x2="22.5" y2="23.8644" gradientUnits="userSpaceOnUse">
<stop stop-color="#FFF6E0"/>
<stop offset="1" stop-color="#F2B705"/>
</linearGradient>
<linearGradient id="paint8_linear_4119_173" x1="0.000549316" y1="23.8644" x2="22.5" y2="23.8644" gradientUnits="userSpaceOnUse">
<stop stop-color="#FFF6E0"/>
<stop offset="1" stop-color="#F2B705"/>
</linearGradient>
<linearGradient id="paint9_linear_4119_173" x1="0.000549316" y1="23.8644" x2="22.5" y2="23.8644" gradientUnits="userSpaceOnUse">
<stop stop-color="#FFF6E0"/>
<stop offset="1" stop-color="#F2B705"/>
</linearGradient>
<linearGradient id="paint10_linear_4119_173" x1="0.000549316" y1="23.8644" x2="22.5" y2="23.8644" gradientUnits="userSpaceOnUse">
<stop stop-color="#FFF6E0"/>
<stop offset="1" stop-color="#F2B705"/>
</linearGradient>
<linearGradient id="paint11_linear_4119_173" x1="0.000549316" y1="23.8644" x2="22.5" y2="23.8644" gradientUnits="userSpaceOnUse">
<stop stop-color="#FFF6E0"/>
<stop offset="1" stop-color="#F2B705"/>
</linearGradient>
<linearGradient id="paint12_linear_4119_173" x1="0.000549316" y1="23.8644" x2="22.5" y2="23.8644" gradientUnits="userSpaceOnUse">
<stop stop-color="#FFF6E0"/>
<stop offset="1" stop-color="#F2B705"/>
</linearGradient>
<linearGradient id="paint13_linear_4119_173" x1="0.000549316" y1="23.8644" x2="22.5" y2="23.8644" gradientUnits="userSpaceOnUse">
<stop stop-color="#FFF6E0"/>
<stop offset="1" stop-color="#F2B705"/>
</linearGradient>
<linearGradient id="paint14_linear_4119_173" x1="0.000549316" y1="23.8644" x2="22.5" y2="23.8644" gradientUnits="userSpaceOnUse">
<stop stop-color="#FFF6E0"/>
<stop offset="1" stop-color="#F2B705"/>
</linearGradient>
<linearGradient id="paint15_linear_4119_173" x1="0.000549316" y1="23.8644" x2="22.5" y2="23.8644" gradientUnits="userSpaceOnUse">
<stop stop-color="#FFF6E0"/>
<stop offset="1" stop-color="#F2B705"/>
</linearGradient>
<linearGradient id="paint16_linear_4119_173" x1="0.000549316" y1="23.8644" x2="22.5" y2="23.8644" gradientUnits="userSpaceOnUse">
<stop stop-color="#FFF6E0"/>
<stop offset="1" stop-color="#F2B705"/>
</linearGradient>
<linearGradient id="paint17_linear_4119_173" x1="0.000549316" y1="23.8644" x2="22.5" y2="23.8644" gradientUnits="userSpaceOnUse">
<stop stop-color="#FFF6E0"/>
<stop offset="1" stop-color="#F2B705"/>
</linearGradient>
<linearGradient id="paint18_linear_4119_173" x1="0.000549316" y1="23.8644" x2="22.5" y2="23.8644" gradientUnits="userSpaceOnUse">
<stop stop-color="#FFF6E0"/>
<stop offset="1" stop-color="#F2B705"/>
</linearGradient>
</defs>
</svg>
