<svg width="39" height="51" viewBox="0 0 39 51" fill="none" xmlns="http://www.w3.org/2000/svg">
<path d="M38.4098 12.3906L26.457 0.437783C26.1736 0.154195 25.7862 0 25.4004 0H4.48242C2.01081 0 0 2.01081 0 4.48242V46.5176C0 48.9892 2.01081 51 4.48242 51H34.3652C36.8368 51 38.8477 48.9892 38.8477 46.5176V13.4473C38.8477 13.0373 38.674 12.6547 38.4098 12.3906ZM26.8945 5.10129L33.7464 11.9531H28.3887C27.5648 11.9531 26.8945 11.2829 26.8945 10.459V5.10129ZM34.3652 48.0117H4.48242C3.65855 48.0117 2.98828 47.3414 2.98828 46.5176V4.48242C2.98828 3.65855 3.65855 2.98828 4.48242 2.98828H23.9062V10.459C23.9062 12.9306 25.9171 14.9414 28.3887 14.9414H35.8594V46.5176C35.8594 47.3414 35.1891 48.0117 34.3652 48.0117Z" fill="url(#paint0_linear_4119_171)"/>
<path d="M28.3887 24.1055H13.4473C12.6221 24.1055 11.9531 24.7744 11.9531 25.5996C11.9531 26.4248 12.6221 27.0938 13.4473 27.0938H28.3887C29.2138 27.0938 29.8828 26.4248 29.8828 25.5996C29.8828 24.7744 29.2138 24.1055 28.3887 24.1055Z" fill="url(#paint1_linear_4119_171)"/>
<path d="M28.3887 30.082H13.4473C12.6221 30.082 11.9531 30.751 11.9531 31.5762C11.9531 32.4013 12.6221 33.0703 13.4473 33.0703H28.3887C29.2138 33.0703 29.8828 32.4013 29.8828 31.5762C29.8828 30.751 29.2138 30.082 28.3887 30.082Z" fill="url(#paint2_linear_4119_171)"/>
<path d="M28.3887 36.0586H13.4473C12.6221 36.0586 11.9531 36.7276 11.9531 37.5527C11.9531 38.3779 12.6221 39.0469 13.4473 39.0469H28.3887C29.2138 39.0469 29.8828 38.3779 29.8828 37.5527C29.8828 36.7276 29.2138 36.0586 28.3887 36.0586Z" fill="url(#paint3_linear_4119_171)"/>
<path d="M7.4707 27.0938C8.29589 27.0938 8.96484 26.4248 8.96484 25.5996C8.96484 24.7744 8.29589 24.1055 7.4707 24.1055C6.64551 24.1055 5.97656 24.7744 5.97656 25.5996C5.97656 26.4248 6.64551 27.0938 7.4707 27.0938Z" fill="url(#paint4_linear_4119_171)"/>
<path d="M7.4707 33.0703C8.29589 33.0703 8.96484 32.4014 8.96484 31.5762C8.96484 30.751 8.29589 30.082 7.4707 30.082C6.64551 30.082 5.97656 30.751 5.97656 31.5762C5.97656 32.4014 6.64551 33.0703 7.4707 33.0703Z" fill="url(#paint5_linear_4119_171)"/>
<path d="M7.4707 39.0469C8.29589 39.0469 8.96484 38.3779 8.96484 37.5527C8.96484 36.7275 8.29589 36.0586 7.4707 36.0586C6.64551 36.0586 5.97656 36.7275 5.97656 37.5527C5.97656 38.3779 6.64551 39.0469 7.4707 39.0469Z" fill="url(#paint6_linear_4119_171)"/>
<defs>
<linearGradient id="paint0_linear_4119_171" x1="5.97656" y1="37.5527" x2="8.96484" y2="37.5527" gradientUnits="userSpaceOnUse">
<stop stop-color="#FFF6E0"/>
<stop offset="1" stop-color="#F2B705"/>
</linearGradient>
<linearGradient id="paint1_linear_4119_171" x1="5.97656" y1="37.5527" x2="8.96484" y2="37.5527" gradientUnits="userSpaceOnUse">
<stop stop-color="#FFF6E0"/>
<stop offset="1" stop-color="#F2B705"/>
</linearGradient>
<linearGradient id="paint2_linear_4119_171" x1="5.97656" y1="37.5527" x2="8.96484" y2="37.5527" gradientUnits="userSpaceOnUse">
<stop stop-color="#FFF6E0"/>
<stop offset="1" stop-color="#F2B705"/>
</linearGradient>
<linearGradient id="paint3_linear_4119_171" x1="5.97656" y1="37.5527" x2="8.96484" y2="37.5527" gradientUnits="userSpaceOnUse">
<stop stop-color="#FFF6E0"/>
<stop offset="1" stop-color="#F2B705"/>
</linearGradient>
<linearGradient id="paint4_linear_4119_171" x1="5.97656" y1="37.5527" x2="8.96484" y2="37.5527" gradientUnits="userSpaceOnUse">
<stop stop-color="#FFF6E0"/>
<stop offset="1" stop-color="#F2B705"/>
</linearGradient>
<linearGradient id="paint5_linear_4119_171" x1="5.97656" y1="37.5527" x2="8.96484" y2="37.5527" gradientUnits="userSpaceOnUse">
<stop stop-color="#FFF6E0"/>
<stop offset="1" stop-color="#F2B705"/>
</linearGradient>
<linearGradient id="paint6_linear_4119_171" x1="5.97656" y1="37.5527" x2="8.96484" y2="37.5527" gradientUnits="userSpaceOnUse">
<stop stop-color="#FFF6E0"/>
<stop offset="1" stop-color="#F2B705"/>
</linearGradient>
</defs>
</svg>
