<svg width="65" height="50" viewBox="0 0 65 50" fill="none" xmlns="http://www.w3.org/2000/svg">
<path d="M63.0957 22.8516H57.3828C56.3311 22.8516 55.4785 23.7042 55.4785 24.7559C55.4785 25.8075 56.3311 26.6602 57.3828 26.6602H63.0957C64.1474 26.6602 65 25.8075 65 24.7559C65 23.7042 64.1474 22.8516 63.0957 22.8516Z" fill="url(#paint0_linear_4119_170)"/>
<path d="M60.6337 34.835L56.8251 31.0264C56.0816 30.2829 54.8758 30.2829 54.1321 31.0264C53.3883 31.77 53.3883 32.9758 54.1321 33.7195L57.9407 37.5281C58.6842 38.2718 59.8902 38.2718 60.6337 37.5281C61.3774 36.7844 61.3774 35.5787 60.6337 34.835Z" fill="url(#paint1_linear_4119_170)"/>
<path d="M60.6336 11.9835C59.8901 11.2399 58.6843 11.2399 57.9406 11.9835L54.132 15.792C53.3883 16.5357 53.3883 17.7414 54.132 18.4851C54.8757 19.2288 56.0815 19.2287 56.825 18.4851L60.6336 14.6765C61.3773 13.9328 61.3773 12.7271 60.6336 11.9835Z" fill="url(#paint2_linear_4119_170)"/>
<path d="M44.0527 0C41.1924 0 38.8166 2.11313 38.4037 4.86027L36.6666 6.59737C33.6432 9.62076 29.1907 11.4258 24.7559 11.4258H13.3301C10.8475 11.4258 8.73082 13.0179 7.94473 15.2344H7.61719C3.41707 15.2344 0 18.6514 0 22.8516C0 27.0517 3.41707 30.4688 7.61719 30.4688H7.94473C8.51944 32.0892 9.80535 33.3751 11.4258 33.9498V43.7988C11.4258 46.9489 13.9887 49.5117 17.1388 49.5117C20.2888 49.5117 22.8516 46.9489 22.8516 43.7988V34.2773H24.7559C29.1906 34.2773 33.6431 36.0824 36.6666 39.1058L38.4037 40.8429C38.8166 43.5899 41.1925 45.7031 44.0529 45.7031C47.2028 45.7031 49.7656 43.1403 49.7656 39.9902V5.71289C49.7656 2.5628 47.2028 0 44.0527 0ZM7.61719 26.6602C5.51713 26.6602 3.80859 24.9516 3.80859 22.8516C3.80859 20.7515 5.51713 19.043 7.61719 19.043V26.6602ZM19.043 43.7988C19.043 44.8489 18.1887 45.7031 17.1387 45.7031C16.0886 45.7031 15.2344 44.8489 15.2344 43.7988V34.2773H19.043V43.7988ZM22.8516 30.4688H13.3301C12.28 30.4688 11.4258 29.6145 11.4258 28.5645V17.1387C11.4258 16.0886 12.28 15.2344 13.3301 15.2344H22.8516V30.4688ZM38.3398 35.4638C35.1227 32.6795 30.9865 30.9495 26.6475 30.5551L26.6476 15.1479C30.9865 14.7536 35.1227 13.0236 38.3398 10.2392V35.4638ZM45.957 39.9902C45.957 41.0403 45.1028 41.8945 44.0529 41.8945C43.0028 41.8945 42.1484 41.0403 42.1484 39.9902V5.71289C42.1484 4.66286 43.0027 3.80859 44.0529 3.80859C45.1028 3.80859 45.957 4.66286 45.957 5.71289V39.9902Z" fill="url(#paint3_linear_4119_170)"/>
<defs>
<linearGradient id="paint0_linear_4119_170" x1="0" y1="24.7559" x2="49.7656" y2="24.7559" gradientUnits="userSpaceOnUse">
<stop stop-color="#FFF6E0"/>
<stop offset="1" stop-color="#F2B705"/>
</linearGradient>
<linearGradient id="paint1_linear_4119_170" x1="0" y1="24.7559" x2="49.7656" y2="24.7559" gradientUnits="userSpaceOnUse">
<stop stop-color="#FFF6E0"/>
<stop offset="1" stop-color="#F2B705"/>
</linearGradient>
<linearGradient id="paint2_linear_4119_170" x1="0" y1="24.7559" x2="49.7656" y2="24.7559" gradientUnits="userSpaceOnUse">
<stop stop-color="#FFF6E0"/>
<stop offset="1" stop-color="#F2B705"/>
</linearGradient>
<linearGradient id="paint3_linear_4119_170" x1="0" y1="24.7559" x2="49.7656" y2="24.7559" gradientUnits="userSpaceOnUse">
<stop stop-color="#FFF6E0"/>
<stop offset="1" stop-color="#F2B705"/>
</linearGradient>
</defs>
</svg>
