<svg width="35" height="42" viewBox="0 0 35 42" fill="none" xmlns="http://www.w3.org/2000/svg">
<path d="M29.7365 15.2191H26.6572V8.56234C26.6572 3.84103 22.5172 0 17.4286 0C12.34 0 8.20002 3.84103 8.20002 8.56234V15.2191H5.12699C2.29997 15.2191 0 17.398 0 20.0762V36.5905C0 39.2688 2.29997 41.4477 5.12699 41.4477H29.7365C32.5636 41.4477 34.8635 39.2688 34.8635 36.5905V20.0762C34.8635 17.398 32.5636 15.2191 29.7365 15.2191ZM11.618 8.56234C11.618 5.62652 14.2247 3.2381 17.4286 3.2381C20.6325 3.2381 23.2392 5.62652 23.2392 8.56234V15.2191H11.618V8.56234ZM31.4455 36.5905C31.4455 37.4833 30.6789 38.2096 29.7365 38.2096H5.12699C4.18465 38.2096 3.41799 37.4833 3.41799 36.5905V20.0762C3.41799 19.1835 4.18465 18.4572 5.12699 18.4572H29.7365C30.6789 18.4572 31.4455 19.1835 31.4455 20.0762V36.5905Z" fill="url(#paint0_linear_4119_165)"/>
<path d="M17.4326 23.1525C15.6864 23.1525 14.2709 24.4935 14.2709 26.1478C14.2709 27.2041 14.8486 28.1319 15.7204 28.6652V32.2192C15.7204 33.1133 16.4855 33.8383 17.4294 33.8383C18.3732 33.8383 19.1384 33.1133 19.1384 32.2192V28.6691C20.0138 28.1364 20.5942 27.2066 20.5942 26.1478C20.5942 24.4935 19.1787 23.1525 17.4326 23.1525Z" fill="url(#paint1_linear_4119_165)"/>
<defs>
<linearGradient id="paint0_linear_4119_165" x1="14.2709" y1="28.4952" x2="20.5942" y2="28.4952" gradientUnits="userSpaceOnUse">
<stop stop-color="#E0ECFF"/>
<stop offset="1" stop-color="#5B7EFF"/>
</linearGradient>
<linearGradient id="paint1_linear_4119_165" x1="14.2709" y1="28.4952" x2="20.5942" y2="28.4952" gradientUnits="userSpaceOnUse">
<stop stop-color="#E0ECFF"/>
<stop offset="1" stop-color="#5B7EFF"/>
</linearGradient>
</defs>
</svg>
