<svg width="40" height="36" viewBox="0 0 40 36" fill="none" xmlns="http://www.w3.org/2000/svg">
<path d="M32.7391 0.648617C32.6195 0.621918 32.504 0.585459 32.3925 0.539241C27.4438 -1.04556 21.9246 0.98058 19.5543 5.25238C17.5755 8.81864 18.2389 13.1164 21.1879 16.0439L20.5197 18.2352C20.2326 19.1763 20.8639 20.1975 21.8983 20.4597L23.388 20.8373L22.8943 22.4373C22.5538 23.5411 23.5171 24.6616 24.7733 24.6276C24.8004 25.0331 24.9816 25.4315 25.3206 25.7408L27.2379 27.4889C27.2985 27.5441 27.3631 27.5931 27.4294 27.6392C27.3184 27.782 27.2303 27.9406 27.1702 28.1121L26.3448 30.467C26.2947 30.6099 26.2659 30.7559 26.2572 30.9019C25.8976 30.8942 25.5318 30.9795 25.2056 31.1675L22.9121 32.4894L22.6215 32.6951L21.6117 31.4488L22.8361 30.6452C23.7055 30.0746 23.9139 28.9178 23.2862 28.1235L21.0364 25.2764C20.3977 24.4682 19.1568 24.2842 18.2701 24.8661L12.9172 28.3793C12.3549 28.7484 11.6445 28.8884 10.9678 28.7636C9.21833 28.4407 7.68177 27.5376 6.64104 26.2207C4.57747 23.6092 4.95891 19.9784 7.52825 17.7751C8.32631 17.0907 8.21193 15.7204 7.19818 15.2297C4.07607 13.7189 2.65596 10.3019 3.89494 7.28131C4.33503 6.20812 5.08232 5.26117 6.05607 4.54287C6.6324 4.11763 5.91103 3.30473 5.33462 3.73004C4.20184 4.56573 3.33245 5.66716 2.82072 6.91505C1.57226 9.95869 2.64747 13.3486 5.32048 15.341C5.01106 15.5441 4.7313 15.8386 4.48167 16.0953C3.09925 15.0322 2.06257 13.5973 1.54144 12.0083C0.954101 10.2179 1.02429 8.34384 1.74428 6.58846C3.39575 2.56232 8.09357 0.279708 12.6733 1.27971C13.329 1.42289 13.0747 2.39682 12.3995 2.25155C10.9749 1.94586 9.48035 1.99487 8.07721 2.39348C7.36922 2.59445 7.71029 3.59229 8.41828 3.3918C9.62577 3.04876 10.9116 3.00658 12.1369 3.26939C14.2464 3.72195 15.056 0.724602 12.9405 0.262699C7.79975 -0.859156 2.52407 1.7025 0.670216 6.22234C-0.138163 8.19306 -0.216837 10.2975 0.442681 12.3081C1.03079 14.101 2.20402 15.7198 3.76917 16.9153C1.22552 20.1966 1.16069 24.7008 3.82345 28.0706C5.81011 30.5848 9.02038 32.061 12.3864 32.0607C12.7364 32.0607 13.0887 32.0448 13.4407 32.0124C13.4644 32.0097 13.4871 32.0187 13.5004 32.0353L14.8071 33.689C15.4322 34.4801 16.6981 34.6736 17.5734 34.0992L18.5419 33.4636L19.7809 34.9929C20.4525 35.8221 21.8243 35.9118 22.6248 35.2002C23.2372 35.7271 24.2205 35.8147 24.9329 35.4041L27.2265 34.0822C28.1133 33.6711 28.2012 32.7171 28.1488 32.7171C28.4462 32.7171 28.7414 32.6524 29.0133 32.5245C29.4622 32.3135 29.7942 31.9557 29.948 31.517L30.7733 29.1621C30.9271 28.7234 30.8843 28.2564 30.6528 27.8471C30.5217 27.6152 30.3376 27.4193 30.1163 27.266C30.6401 26.5932 30.5736 25.6528 29.9127 25.0502L27.9955 23.3022C27.6511 22.9882 27.1972 22.8107 26.7124 22.7984L27.0323 21.7613L28.1468 22.0438C29.179 22.3055 30.2993 21.7309 30.5869 20.7875L31.1856 18.8242C31.1916 18.8046 31.2093 18.7896 31.2328 18.784C32.5778 18.4683 33.8249 17.9217 34.9397 17.1596C35.1931 16.9864 35.2445 16.6587 35.0546 16.4276C34.8647 16.1965 34.5051 16.1498 34.2518 16.3229C33.2576 17.0025 32.1456 17.4899 30.9468 17.7714C30.5279 17.8697 30.1961 18.1657 30.0807 18.544L29.4819 20.5074C29.3647 20.8917 28.8977 21.1489 28.4539 21.0364L22.2056 19.4524C21.7842 19.3455 21.5011 18.9204 21.6245 18.5154L22.6553 15.1351C22.7787 14.7309 23.2396 14.4939 23.6834 14.606L30.0388 16.2171C31.0132 16.4642 32.0644 16.3292 32.9228 15.8467C34.6886 14.8541 35.9663 13.3061 36.5207 11.4881C37.6199 7.88368 35.6024 4.06228 31.8279 2.59919C31.1457 2.33485 31.5904 1.34001 32.291 1.61132C36.6076 3.28187 38.9142 7.65169 37.6565 11.776C37.3488 12.7848 36.8498 13.7206 36.1734 14.5575C35.9855 14.7899 36.0399 15.1172 36.2949 15.2886C36.5498 15.4598 36.9088 15.4103 37.0967 15.1778C37.8562 14.2382 38.4163 13.1878 38.7614 12.0561C40.1728 7.4277 37.5838 2.5237 32.7391 0.648617ZM16.9033 33.2506C16.5297 33.4959 16.0068 33.4184 15.7376 33.0778L14.4309 31.424C14.1996 31.1314 13.7248 30.9353 13.3253 30.972C9.99261 31.2786 6.70848 29.9329 4.75393 27.4594C2.00913 23.9856 2.51596 19.1591 5.9329 16.2324C6.48729 15.7577 7.28252 16.5504 6.74265 17.0134C3.75541 19.5749 3.31173 23.796 5.71064 26.832C6.92065 28.3633 8.70691 29.4132 10.7404 29.7884C11.7286 29.9709 12.7665 29.7666 13.5872 29.2279L18.9401 25.7148C19.3138 25.4696 19.8368 25.5472 20.1059 25.8876L22.3557 28.7349C22.625 29.0757 22.5209 29.5637 22.1661 29.7966L16.9033 33.2506ZM21.7439 34.5142C21.4121 34.7277 20.9488 34.6745 20.7033 34.3715L19.4727 32.8527L20.6809 32.0597L21.9005 33.5651C22.1342 33.8537 22.0756 34.2909 21.7439 34.5142ZM26.942 32.7739C26.8983 32.9507 26.7816 33.1015 26.6137 33.1983L24.3201 34.5202C23.4973 34.9946 22.7988 33.9167 23.525 33.3734L25.8185 32.0515C26.3599 31.739 27.0844 32.1964 26.942 32.7739ZM29.6808 28.8437L28.8555 31.1986C28.731 31.5539 28.3139 31.751 27.9241 31.6395C27.8335 31.6159 27.2468 31.3473 27.4373 30.7854L28.2627 28.4304C28.5451 27.6246 29.9899 27.9625 29.6808 28.8437ZM29.1016 25.7896C29.7722 26.4011 28.7349 27.3753 28.0489 26.7496L26.1316 25.0014C25.4673 24.396 26.4945 23.4126 27.1844 24.0416L29.1016 25.7896ZM25.4314 23.0882C25.189 23.8741 23.7311 23.5866 23.9983 22.7206L24.493 21.1176L25.9273 21.4812L25.4314 23.0882ZM20.5777 5.72446C22.4737 2.30752 26.6312 0.503898 30.6511 1.19348C30.4132 1.50473 30.3085 1.84966 30.3372 2.22826C26.8303 1.66388 23.223 3.2468 21.5709 6.22408C20.1865 8.71903 20.451 11.6805 22.2107 13.9377C21.9092 14.1604 21.6765 14.4653 21.5593 14.8285C19.3409 12.2481 18.9263 8.70041 20.5777 5.72446ZM35.4158 11.2079C34.939 12.7713 33.84 14.1026 32.3209 14.9565C31.7337 15.2867 31.0138 15.379 30.3461 15.2097L23.9907 13.5985C23.7636 13.5409 23.5347 13.5222 23.3122 13.5375C21.6493 11.5719 21.3611 8.91847 22.5943 6.69609C24.1392 3.91192 28.1247 2.30055 31.3792 3.56141C34.626 4.8199 36.3614 8.10718 35.4158 11.2079Z" fill="url(#paint0_linear_4119_164)"/>
<path d="M25.851 16.9928L25.3944 18.4902C25.2011 19.1236 26.2987 19.4284 26.4992 18.7703L26.9559 17.2729C27.0407 16.9947 26.8621 16.7065 26.557 16.6292C26.252 16.5515 25.9358 16.7147 25.851 16.9928Z" fill="url(#paint1_linear_4119_164)"/>
<path d="M17.754 28.6776C17.5689 28.4433 17.2106 28.3902 16.9536 28.5591C16.6967 28.7278 16.6384 29.0545 16.8236 29.2888L17.8202 30.5502C17.9323 30.692 18.1078 30.7674 18.2859 30.7674C18.402 30.7674 18.5192 30.7354 18.6206 30.6687C18.8776 30.5 18.9358 30.1732 18.7506 29.9389L17.754 28.6776Z" fill="url(#paint2_linear_4119_164)"/>
<defs>
<linearGradient id="paint0_linear_4119_164" x1="16.7153" y1="29.6135" x2="18.8589" y2="29.6135" gradientUnits="userSpaceOnUse">
<stop stop-color="#E0ECFF"/>
<stop offset="1" stop-color="#5B7EFF"/>
</linearGradient>
<linearGradient id="paint1_linear_4119_164" x1="16.7153" y1="29.6135" x2="18.8589" y2="29.6135" gradientUnits="userSpaceOnUse">
<stop stop-color="#E0ECFF"/>
<stop offset="1" stop-color="#5B7EFF"/>
</linearGradient>
<linearGradient id="paint2_linear_4119_164" x1="16.7153" y1="29.6135" x2="18.8589" y2="29.6135" gradientUnits="userSpaceOnUse">
<stop stop-color="#E0ECFF"/>
<stop offset="1" stop-color="#5B7EFF"/>
</linearGradient>
</defs>
</svg>
