<svg width="35" height="33" viewBox="0 0 35 33" fill="none" xmlns="http://www.w3.org/2000/svg">
<path d="M29.1627 5.20007H5.56054C5.24755 5.20007 4.94739 5.32137 4.72607 5.53729C4.50476 5.7532 4.38043 6.04605 4.38043 6.3514C4.38043 6.65675 4.50476 6.94959 4.72607 7.16551C4.94739 7.38142 5.24755 7.50272 5.56054 7.50272H29.1627C29.4757 7.50272 29.7758 7.38142 29.9971 7.16551C30.2185 6.94959 30.3428 6.65675 30.3428 6.3514C30.3428 6.04605 30.2185 5.7532 29.9971 5.53729C29.7758 5.32137 29.4757 5.20007 29.1627 5.20007Z" fill="url(#paint0_linear_4119_163)"/>
<path d="M31.1831 0H3.54032C2.60175 0.00121847 1.70198 0.365509 1.03832 1.01299C0.374647 1.66047 0.00124893 2.5383 0 3.45397V10.5047C0.00124893 11.4204 0.374647 12.2982 1.03832 12.9457C1.70198 13.5931 2.60175 13.9574 3.54032 13.9587H6.4245V31.6292C6.4245 31.9345 6.54884 32.2274 6.77015 32.4433C6.99146 32.6592 7.29163 32.7805 7.60461 32.7805H27.1189C27.4318 32.7805 27.732 32.6592 27.9533 32.4433C28.1746 32.2274 28.299 31.9345 28.299 31.6292V13.9587H31.1831C32.1217 13.9574 33.0215 13.5931 33.6852 12.9457C34.3488 12.2982 34.7222 11.4204 34.7235 10.5047V3.45397C34.7222 2.5383 34.3488 1.66047 33.6852 1.01299C33.0215 0.365509 32.1217 0.00121847 31.1831 0ZM25.9388 25.3291C24.5391 25.4654 23.2225 26.0409 22.1867 26.9693C21.1508 27.8976 20.4516 29.1288 20.194 30.4778H13.9583C13.7208 29.2196 13.0971 28.0615 12.1698 27.1569C11.2426 26.2522 10.0555 25.6438 8.76584 25.412V10.9053H25.9388V25.3291ZM8.78472 30.4778V27.793C9.43465 27.9847 10.026 28.3301 10.5061 28.7985C10.9862 29.2669 11.3402 29.8438 11.5367 30.4778H8.78472ZM25.9388 30.4778H22.6345C22.8578 29.7511 23.286 29.1002 23.8703 28.5994C24.4545 28.0986 25.1713 27.7681 25.9388 27.6456V30.4778ZM32.3633 10.5047C32.3633 10.81 32.2389 11.1029 32.0176 11.3188C31.7963 11.5347 31.4961 11.656 31.1831 11.656H28.299V9.75402C28.299 9.44867 28.1746 9.15582 27.9533 8.93991C27.732 8.72399 27.4318 8.60269 27.1189 8.60269H7.60461C7.29163 8.60269 6.99146 8.72399 6.77015 8.93991C6.54884 9.15582 6.4245 9.44867 6.4245 9.75402V11.656H3.54032C3.22734 11.656 2.92717 11.5347 2.70586 11.3188C2.48455 11.1029 2.36021 10.81 2.36021 10.5047V3.45397C2.36021 3.14862 2.48455 2.85578 2.70586 2.63986C2.92717 2.42395 3.22734 2.30265 3.54032 2.30265H31.1831C31.4961 2.30265 31.7963 2.42395 32.0176 2.63986C32.2389 2.85578 32.3633 3.14862 32.3633 3.45397V10.5047Z" fill="url(#paint1_linear_4119_163)"/>
<path d="M17.3622 22.2026C18.2193 22.2026 19.0571 21.9547 19.7697 21.4901C20.4823 21.0256 21.0377 20.3653 21.3657 19.5928C21.6937 18.8203 21.7795 17.9703 21.6123 17.1502C21.4451 16.3301 21.0324 15.5768 20.4263 14.9856C19.8203 14.3943 19.0482 13.9917 18.2076 13.8285C17.367 13.6654 16.4957 13.7491 15.7039 14.0691C14.9121 14.3891 14.2353 14.931 13.7592 15.6262C13.283 16.3214 13.0289 17.1388 13.0289 17.975C13.0301 19.0958 13.4871 20.1705 14.2994 20.963C15.1118 21.7556 16.2133 22.2014 17.3622 22.2026ZM17.3622 16.073C17.7525 16.073 18.1339 16.1859 18.4584 16.3974C18.7829 16.6089 19.0358 16.9096 19.1851 17.2613C19.3345 17.6131 19.3736 18.0001 19.2974 18.3735C19.2213 18.747 19.0334 19.09 18.7574 19.3592C18.4815 19.6284 18.1299 19.8117 17.7471 19.886C17.3644 19.9603 16.9677 19.9222 16.6071 19.7765C16.2466 19.6308 15.9384 19.384 15.7216 19.0675C15.5048 18.7509 15.3891 18.3787 15.3891 17.998C15.3903 17.4878 15.5986 16.9989 15.9684 16.6381C16.3381 16.2774 16.8393 16.0742 17.3622 16.073Z" fill="url(#paint2_linear_4119_163)"/>
<defs>
<linearGradient id="paint0_linear_4119_163" x1="13.0288" y1="17.9747" x2="21.6955" y2="17.9747" gradientUnits="userSpaceOnUse">
<stop stop-color="#E0ECFF"/>
<stop offset="1" stop-color="#5B7EFF"/>
</linearGradient>
<linearGradient id="paint1_linear_4119_163" x1="13.0288" y1="17.9747" x2="21.6955" y2="17.9747" gradientUnits="userSpaceOnUse">
<stop stop-color="#E0ECFF"/>
<stop offset="1" stop-color="#5B7EFF"/>
</linearGradient>
<linearGradient id="paint2_linear_4119_163" x1="13.0288" y1="17.9747" x2="21.6955" y2="17.9747" gradientUnits="userSpaceOnUse">
<stop stop-color="#E0ECFF"/>
<stop offset="1" stop-color="#5B7EFF"/>
</linearGradient>
</defs>
</svg>
