<svg width="32" height="31" viewBox="0 0 32 31" fill="none" xmlns="http://www.w3.org/2000/svg">
<path d="M27.8836 3.2381H23.4223V1.07937C23.4223 0.793101 23.3047 0.518559 23.0956 0.316139C22.8864 0.113719 22.6027 0 22.3069 0C22.0111 0 21.7274 0.113719 21.5182 0.316139C21.3091 0.518559 21.1916 0.793101 21.1916 1.07937V3.2381H10.0381V1.07937C10.0381 0.793101 9.9206 0.518559 9.71143 0.316139C9.50226 0.113719 9.21857 0 8.92276 0C8.62695 0 8.34326 0.113719 8.13409 0.316139C7.92493 0.518559 7.80742 0.793101 7.80742 1.07937V3.2381H3.34604C2.45861 3.2381 1.60753 3.57925 0.980031 4.18652C0.352528 4.79378 0 5.6174 0 6.4762V26.9842C0 27.843 0.352528 28.6666 0.980031 29.2738C1.60753 29.8811 2.45861 30.2223 3.34604 30.2223H27.8836C28.7711 30.2223 29.6221 29.8811 30.2496 29.2738C30.8771 28.6666 31.2297 27.843 31.2297 26.9842V6.4762C31.2297 5.6174 30.8771 4.79378 30.2496 4.18652C29.6221 3.57925 28.7711 3.2381 27.8836 3.2381ZM27.8836 28.0635H3.34604C3.05023 28.0635 2.76654 27.9498 2.55737 27.7474C2.3482 27.545 2.23069 27.2704 2.23069 26.9842V12.9524H23.4223C23.7181 12.9524 24.0018 12.8387 24.2109 12.6363C24.4201 12.4338 24.5376 12.1593 24.5376 11.873C24.5376 11.5868 24.4201 11.3122 24.2109 11.1098C24.0018 10.9074 23.7181 10.7937 23.4223 10.7937H2.23069V6.4762C2.23069 6.18993 2.3482 5.91539 2.55737 5.71297C2.76654 5.51055 3.05023 5.39683 3.34604 5.39683H7.80742V7.55556C7.80742 7.84183 7.92493 8.11637 8.13409 8.31879C8.34326 8.52121 8.62695 8.63493 8.92276 8.63493C9.21857 8.63493 9.50226 8.52121 9.71143 8.31879C9.9206 8.11637 10.0381 7.84183 10.0381 7.55556V5.39683H21.1916V7.55556C21.1916 7.84183 21.3091 8.11637 21.5182 8.31879C21.7274 8.52121 22.0111 8.63493 22.3069 8.63493C22.6027 8.63493 22.8864 8.52121 23.0956 8.31879C23.3047 8.11637 23.4223 7.84183 23.4223 7.55556V5.39683H27.8836C28.1794 5.39683 28.4631 5.51055 28.6723 5.71297C28.8815 5.91539 28.999 6.18993 28.999 6.4762V10.7937H26.7683C26.4725 10.7937 26.1888 10.9074 25.9796 11.1098C25.7704 11.3122 25.6529 11.5868 25.6529 11.873C25.6529 12.1593 25.7704 12.4338 25.9796 12.6363C26.1888 12.8387 26.4725 12.9524 26.7683 12.9524H28.999V26.9842C28.999 27.2704 28.8815 27.545 28.6723 27.7474C28.4631 27.9498 28.1794 28.0635 27.8836 28.0635Z" fill="url(#paint0_linear_4119_162)"/>
<defs>
<linearGradient id="paint0_linear_4119_162" x1="0" y1="15.1111" x2="31.2297" y2="15.1111" gradientUnits="userSpaceOnUse">
<stop stop-color="#E0ECFF"/>
<stop offset="1" stop-color="#5B7EFF"/>
</linearGradient>
</defs>
</svg>
