<svg width="85" height="81" viewBox="0 0 85 81" fill="none" xmlns="http://www.w3.org/2000/svg">
<path d="M74.6749 51.0046C74.4777 50.9697 74.2756 50.9742 74.0802 51.0179C73.8848 51.0616 73.7 51.1436 73.5365 51.2592C73.373 51.3747 73.234 51.5216 73.1276 51.6912C73.0213 51.8609 72.9496 52.0499 72.9167 52.2474L71.4617 60.5379C70.1058 58.2396 68.0874 56.4043 65.671 55.2723C63.2545 54.1402 60.5526 53.7641 57.9188 54.1932C55.2851 54.6224 52.8423 55.8367 50.9102 57.6773C48.9781 59.5179 47.6468 61.899 47.0905 64.5089C45.6584 63.729 44.053 63.3224 42.4224 63.3267C40.7987 63.3246 39.1999 63.7256 37.7694 64.4937C37.2091 61.8868 35.8759 59.5095 33.9437 57.6719C32.0116 55.8344 29.5703 54.6221 26.9386 54.1933C24.3069 53.7645 21.6071 54.1392 19.1916 55.2683C16.7761 56.3974 14.7571 58.2286 13.3982 60.5228L11.9584 52.3535C11.8875 51.96 11.6638 51.6105 11.3363 51.3812C11.0087 51.1519 10.6038 51.0613 10.2097 51.1293C9.81572 51.1974 9.46455 51.4184 9.23281 51.7442C9.00106 52.0701 8.90753 52.4743 8.9726 52.8688L11.534 67.3734C11.5601 70.8244 12.9295 74.1295 15.3518 76.5877C17.7741 79.0459 21.0587 80.4638 24.5089 80.5407C27.9592 80.6175 31.3037 79.3474 33.833 76.9995C36.3624 74.6516 37.8777 71.4108 38.0574 67.9644C39.2826 66.9365 40.8308 66.373 42.43 66.373C44.0293 66.373 45.5774 66.9365 46.8026 67.9644V67.9795C46.9844 71.4225 48.4997 74.6595 51.0274 77.0043C53.555 79.3491 56.8965 80.6175 60.3434 80.5406C63.7903 80.4638 67.0719 79.0477 69.4926 76.5926C71.9132 74.1375 73.2828 70.8362 73.3109 67.3885L75.9026 52.7628C75.9711 52.367 75.8805 51.9603 75.6506 51.631C75.4207 51.3017 75.07 51.0766 74.6749 51.0046ZM65.7327 68.7981C65.3311 68.7969 64.9463 68.6369 64.6623 68.3529C64.3783 68.0689 64.2183 67.6841 64.2171 67.2825C64.2174 66.7351 64.1098 66.1929 63.9004 65.6871C63.6911 65.1813 63.3841 64.7217 62.997 64.3346C62.6099 63.9475 62.1503 63.6405 61.6445 63.4312C61.1387 63.2218 60.5965 63.1142 60.0491 63.1145C59.6471 63.1145 59.2616 62.9549 58.9774 62.6706C58.6931 62.3864 58.5335 62.0009 58.5335 61.5989C58.5335 61.197 58.6931 60.8114 58.9774 60.5272C59.2616 60.243 59.6471 60.0833 60.0491 60.0833C61.9579 60.085 63.7881 60.8441 65.1378 62.1938C66.4875 63.5436 67.2466 65.3737 67.2483 67.2825C67.2471 67.6841 67.087 68.0689 66.8031 68.3529C66.5191 68.6369 66.1343 68.7969 65.7327 68.7981Z" fill="white"/>
<path d="M72.5378 26.9973C72.7196 27.4671 73.7561 29.9234 74.0086 30.5022C74.1629 30.8535 74.1756 31.2508 74.0439 31.6111C73.9122 31.9715 73.6464 32.267 73.3019 32.436L73.2868 32.4434C73.1046 32.5331 72.906 32.5844 72.7032 32.5942C72.5004 32.6039 72.2978 32.5719 72.1079 32.5C71.918 32.4281 71.7449 32.318 71.5994 32.1764C71.4538 32.0349 71.339 31.8649 71.2619 31.6771C69.3534 27.012 63.5145 12.4356 60.4431 4.4296C59.9859 3.2452 59.2093 2.21075 58.1996 1.44124C57.1898 0.671723 55.9864 0.197288 54.7232 0.0706634C53.1502 -0.0600798 51.5785 0.337379 50.2567 1.20017L44.529 4.77816C43.9222 5.15574 43.2224 5.35712 42.5078 5.35979C41.7932 5.36247 41.0919 5.16634 40.4823 4.79332L34.5107 1.04973C33.6621 0.515659 32.7062 0.17494 31.7111 0.0517538C30.716 -0.0714319 29.7059 0.0259354 28.7526 0.336945C27.7993 0.647954 26.9262 1.16498 26.1952 1.85133C25.4642 2.53768 24.8932 3.37652 24.5228 4.30832L13.4914 31.8867C13.3457 32.2509 13.0618 32.5426 12.7018 32.6983C12.3418 32.854 11.9348 32.861 11.5697 32.7177L11.5146 32.696C11.3324 32.6245 11.1661 32.5177 11.0253 32.3817C10.8845 32.2457 10.772 32.0833 10.6942 31.9036C10.6164 31.724 10.5749 31.5308 10.5721 31.3351C10.5692 31.1394 10.6051 30.945 10.6776 30.7632L12.1553 27.0579C4.27406 29.5132 0 32.893 0 36.7427C0 45.5485 21.8705 50.3076 42.4375 50.3076C63.0045 50.3076 84.875 45.5485 84.875 36.7427C84.8749 32.8627 80.5403 29.4526 72.5378 26.9973Z" fill="white"/>
</svg>
