<svg width="519" height="76" viewBox="0 0 519 76" fill="none" xmlns="http://www.w3.org/2000/svg">
<path d="M0 75.7595V0H17.5778L38.2395 50.472L58.9012 0H76.479V75.7595H60.9571V28.6796L42.3513 74.1148H34.1277L15.522 28.5768V75.7595H0Z" fill="url(#paint0_linear_4119_193)"/>
<path d="M99.0528 75.7595L87.6426 64.3493V11.4102L99.0528 0H136.367L147.366 10.8962L137.19 20.6617L129.274 12.9521H107.79L103.679 16.9611V58.6956L107.79 62.8074H130.097L137.909 55.0978L148.086 64.8633L137.19 75.7595H99.0528Z" fill="url(#paint1_linear_4119_193)"/>
<path d="M156.808 75.7595V0H203.477L214.887 11.4102V39.3703L203.477 50.7804H172.844V75.7595H156.808ZM172.844 37.8283H195.048L199.159 33.8194V16.9611L195.048 12.9521H172.844V37.8283Z" fill="url(#paint2_linear_4119_193)"/>
<path d="M268.658 31.7595V0.118488H275.999L284.629 21.1982L293.258 0.118488H300.599V31.7595H294.117V12.0965L286.346 31.0725H282.911L275.141 12.0536V31.7595H268.658Z" fill="white"/>
<path d="M306.121 31.7595V0.118488H328.96V5.82846H312.818V12.6117H327.458V18.107H312.818V26.0495H328.96V31.7595H306.121Z" fill="white"/>
<path d="M333.435 31.7595V0.118488H341.292L352.883 20.5971V0.118488H359.366V31.7595H352.669L341.206 11.4526H339.918V31.7595H333.435Z" fill="white"/>
<path d="M370.913 31.7595V5.82846H362.112V0.118488H386.454V5.82846H377.61V31.7595H370.913Z" fill="white"/>
<path d="M393.148 31.7595L388.383 26.994V4.88395L393.148 0.118488H410.149L414.958 4.88395V26.994L410.149 31.7595H393.148ZM396.797 26.35H406.543L408.26 24.6327V7.20229L406.5 5.52794H396.797L395.08 7.20229V24.6327L396.797 26.35Z" fill="white"/>
<path d="M419.659 31.7595V0.118488H439.666L444.431 4.88395V15.7887L440.438 19.7385L445.547 31.7595H438.464L433.913 20.5542H426.357V31.7595H419.659ZM426.357 15.1447H436.145L437.863 13.4704L437.82 7.20229L436.145 5.52794H426.357V15.1447Z" fill="white"/>
<path d="M448.543 31.7595V26.2642H451.892V5.6138H448.543V0.118488H461.766V5.6138H458.417L458.331 26.2642H461.766V31.7595H448.543Z" fill="white"/>
<path d="M463.277 31.7595L473.066 0.118488H483.584L493.373 31.7595H486.289L484.314 24.7615H472.336L470.404 31.7595H463.277ZM473.882 19.3091H482.769L478.99 5.69966H477.703L473.882 19.3091Z" fill="white"/>
<path d="M246.571 75.7595L241.805 70.994V48.884L246.571 44.1185H262.155L266.749 48.6693L262.499 52.7478L259.193 49.5279H250.22L248.503 51.2023V68.6327L250.22 70.35H259.536L262.799 67.1301L267.05 71.2087L262.499 75.7595H246.571Z" fill="white"/>
<path d="M267.687 75.7595L277.476 44.1185H287.994L297.783 75.7595H290.699L288.724 68.7615H276.746L274.814 75.7595H267.687ZM278.291 63.3091H287.178L283.4 49.6997H282.112L278.291 63.3091Z" fill="white"/>
<path d="M299.283 75.7595V70.2642H302.631V49.6138H299.283V44.1185H312.506V49.6138H309.157L309.071 70.2642H312.506V75.7595H299.283Z" fill="white"/>
<path d="M314.017 75.7595L322.432 59.2735L314.103 44.1185H321.788L327.841 56.1824H329.129L335.182 44.1185H342.867L334.538 59.2735L342.91 75.7595H335.182L329.129 62.8798H327.841L321.745 75.7595H314.017Z" fill="white"/>
<path d="M343.68 75.7595L353.469 44.1185H363.987L373.776 75.7595H366.692L364.717 68.7615H352.739L350.807 75.7595H343.68ZM354.285 63.3091H363.172L359.393 49.6997H358.106L354.285 63.3091Z" fill="white"/>
<path d="M385.762 75.7595V44.1185H405.253L410.019 48.884V60.5615L405.253 65.327H392.46V75.7595H385.762ZM392.46 59.9175H401.733L403.45 58.2432V51.2023L401.733 49.5279H392.46V59.9175Z" fill="white"/>
<path d="M413.12 75.7595V44.1185H433.126L437.892 48.884V59.7887L433.899 63.7385L439.008 75.7595H431.924L427.373 64.5542H419.817V75.7595H413.12ZM419.817 59.1447H429.606L431.323 57.4704L431.28 51.2023L429.606 49.5279H419.817V59.1447Z" fill="white"/>
<path d="M443.077 75.7595V44.1185H465.916V49.8285H449.774V56.6117H464.414V62.107H449.774V70.0495H465.916V75.7595H443.077Z" fill="white"/>
<path d="M476.445 75.7595V49.8285H467.643V44.1185H491.986V49.8285H483.142V75.7595H476.445Z" fill="white"/>
<path d="M488.456 75.7595L498.244 44.1185H508.762L518.551 75.7595H511.467L509.492 68.7615H497.514L495.582 75.7595H488.456ZM499.06 63.3091H507.947L504.169 49.6997H502.881L499.06 63.3091Z" fill="white"/>
<defs>
<linearGradient id="paint0_linear_4119_193" x1="0" y1="37.8797" x2="518.551" y2="37.8797" gradientUnits="userSpaceOnUse">
<stop stop-color="#E8160E"/>
<stop offset="1" stop-color="white"/>
</linearGradient>
<linearGradient id="paint1_linear_4119_193" x1="0" y1="37.8797" x2="518.551" y2="37.8797" gradientUnits="userSpaceOnUse">
<stop stop-color="#E8160E"/>
<stop offset="1" stop-color="white"/>
</linearGradient>
<linearGradient id="paint2_linear_4119_193" x1="0" y1="37.8797" x2="518.551" y2="37.8797" gradientUnits="userSpaceOnUse">
<stop stop-color="#E8160E"/>
<stop offset="1" stop-color="white"/>
</linearGradient>
</defs>
</svg>
