<svg width="20" height="19" viewBox="0 0 20 19" fill="none" xmlns="http://www.w3.org/2000/svg">
<path d="M8.15973 1.25287L9.11063 0.301974C9.51326 -0.100658 10.1643 -0.100658 10.5627 0.301974L18.8895 8.62447C19.2921 9.0271 19.2921 9.67817 18.8895 10.0765L10.5627 18.4033C10.16 18.8059 9.50898 18.8059 9.11063 18.4033L8.15973 17.4524C7.75281 17.0455 7.76138 16.3816 8.17686 15.9832L13.3383 11.066H1.028C0.458316 11.066 0 10.6076 0 10.038V8.6673C0 8.09762 0.458316 7.63931 1.028 7.63931H13.3383L8.17686 2.72205C7.7571 2.3237 7.74853 1.65979 8.15973 1.25287Z" fill="white"/>
</svg>
