<svg width="54" height="54" viewBox="0 0 54 54" fill="none" xmlns="http://www.w3.org/2000/svg">
<path d="M42.8108 29.7808V23.5311C42.8108 23.1503 42.6717 22.7826 42.4197 22.4971C42.1676 22.2116 41.82 22.028 41.4421 21.9808L38.7615 21.6457L40.4201 19.5132C40.6539 19.2126 40.7699 18.8369 40.7462 18.4569C40.7225 18.0768 40.5608 17.7184 40.2915 17.4492L35.8724 13.03C35.3153 12.4728 34.4304 12.4178 33.8084 12.9015L31.676 14.56L31.3409 11.8795C31.2937 11.5016 31.11 11.154 30.8246 10.902C30.5391 10.6499 30.1714 10.5108 29.7905 10.5108H23.5408C23.16 10.5108 22.7923 10.6499 22.5068 10.902C22.2213 11.154 22.0377 11.5016 21.9904 11.8795L21.6554 14.56L19.5229 12.9015C18.901 12.4179 18.0161 12.4728 17.459 13.03L13.0398 17.4492C12.4826 18.0063 12.4275 18.8913 12.9113 19.5132L14.5698 21.6457L11.8892 21.9808C11.5113 22.028 11.1637 22.2116 10.9117 22.4971C10.6596 22.7826 10.5205 23.1503 10.5205 23.5311V29.7808C10.5205 30.1617 10.6596 30.5294 10.9117 30.8149C11.1637 31.1004 11.5113 31.284 11.8892 31.3312L14.5698 31.6663L12.9113 33.7987C12.6774 34.0993 12.5614 34.4749 12.5851 34.855C12.6087 35.2351 12.7704 35.5934 13.0397 35.8627L17.4589 40.282C17.7281 40.5513 18.0865 40.713 18.4666 40.7366C18.8467 40.7603 19.2223 40.6443 19.5229 40.4105L21.6554 38.7519L21.9904 41.4324C22.0377 41.8103 22.2213 42.1579 22.5068 42.41C22.7923 42.662 23.16 42.8011 23.5408 42.8011H29.7905C30.1714 42.8011 30.5391 42.662 30.8246 42.41C31.11 42.1579 31.2937 41.8103 31.3409 41.4324L31.676 38.7519L33.8084 40.4105C34.4304 40.8942 35.3153 40.8392 35.8725 40.282L40.2916 35.8627C40.8488 35.3054 40.9039 34.4205 40.4201 33.7987L38.7615 31.6663L41.4421 31.3312C41.82 31.284 42.1676 31.1004 42.4197 30.8149C42.6717 30.5294 42.8108 30.1617 42.8108 29.7808ZM26.6657 31.8641C23.7939 31.8641 21.4576 29.5277 21.4576 26.656C21.4576 23.7842 23.7939 21.4479 26.6657 21.4479C29.5374 21.4479 31.8738 23.7842 31.8738 26.656C31.8738 29.5277 29.5374 31.8641 26.6657 31.8641Z" fill="#ECC13F"/>
<path d="M49.6315 13.1126C49.1929 12.3699 48.2352 12.1233 47.4924 12.562C46.7496 13.0006 46.5032 13.9584 46.9418 14.701C52.3982 23.9395 50.9027 35.6981 43.3052 43.2955C34.8397 51.761 21.476 52.4155 12.2529 45.2595L15.8867 44.452C16.7287 44.2649 17.2597 43.4305 17.0726 42.5885C16.8855 41.7464 16.0513 41.2151 15.2091 41.4026L8.58264 42.8751C8.23573 42.9522 7.92549 43.1453 7.70312 43.4225C7.48075 43.6997 7.35956 44.0444 7.35956 44.3998V51.0262C7.35956 51.8887 8.0588 52.5881 8.92148 52.5881C9.78404 52.5881 10.4834 51.8888 10.4834 51.0262V47.8409C15.1083 51.3887 20.7389 53.3115 26.6656 53.3115C33.7856 53.3115 40.4795 50.5389 45.5141 45.5042C54.1196 36.8986 55.8128 23.5787 49.6315 13.1126ZM10.0258 10.0161C18.4913 1.55066 31.855 0.896212 41.0781 8.05216L37.4443 8.85973C36.6023 9.0468 36.0714 9.88114 36.2584 10.7232C36.4202 11.4512 37.0656 11.9466 37.7816 11.9466C37.8938 11.9466 38.0078 11.9345 38.1219 11.9091L44.7484 10.4365C45.0953 10.3594 45.4055 10.1664 45.6279 9.88918C45.8502 9.61199 45.9714 9.26727 45.9715 8.91191V2.28521C45.9715 1.42265 45.2722 0.723302 44.4095 0.723302C43.547 0.723302 42.8476 1.42254 42.8476 2.28521V5.4705C38.2228 1.92273 32.5922 0 26.6655 0C19.5455 0 12.8516 2.77259 7.81704 7.80727C-0.78863 16.4129 -2.48179 29.733 3.69951 40.1991C3.99096 40.6926 4.51146 40.967 5.04581 40.9669C5.3158 40.9669 5.58933 40.8969 5.83859 40.7497C6.58137 40.3111 6.82781 39.3533 6.38919 38.6106C0.932858 29.3722 2.42832 17.6136 10.0258 10.0161Z" fill="#ECC13F"/>
</svg>
