<svg width="106" height="29" viewBox="0 0 106 29" fill="none" xmlns="http://www.w3.org/2000/svg">
<path d="M81.346 25.6779C82.8266 25.7913 84.3052 25.9129 85.7817 26.0443V0.00246734H81.346V25.6779ZM9.99246 16.0159L4.2155 0.00246734H0V28.2995C1.47566 28.0894 2.95421 27.8882 4.43563 27.6953V12.3075L9.57237 27.0637C11.1879 26.8763 12.8066 26.699 14.4281 26.5321V0.00246734H9.99246V16.0159ZM18.6932 26.1196C22.7947 25.7466 26.9022 25.4415 31.0138 25.2044V20.8333C28.3779 20.9858 25.7493 21.1662 23.1286 21.3723V14.7556C24.8483 14.7385 27.1125 14.6861 29.1185 14.711V10.3403C27.5159 10.3364 24.94 10.3628 23.1286 10.3858V4.41259H31.0138V0.00287856H18.6932V26.1196ZM33.8574 4.41218H38.4997V24.8493C39.9756 24.7935 41.4548 24.7477 42.9352 24.709V4.41218H47.5773V0.00246734H33.8574V4.41218ZM50.4209 24.5895L54.8565 24.5884V14.4978H60.869V10.1274H54.8565V4.41218H62.803V0.00246734H50.4209V24.5895ZM105.331 0.00246734H100.459L97.2473 7.44662L94.3616 0.00246734H89.5629L94.7198 13.304L89.0899 26.3533C90.6475 26.5052 92.2009 26.6673 93.752 26.8386L97.0262 19.2513L100.269 27.6153C101.958 27.8325 103.642 28.059 105.324 28.2989L105.331 28.296L99.5525 13.3937L105.331 0.00246734ZM70.0818 0H65.6463V24.8063C69.6773 24.9449 73.6914 25.1484 77.6893 25.4148V21.0444C75.1549 20.8756 72.619 20.7322 70.0818 20.6144V0Z" fill="#ECC13F"/>
</svg>
