<svg width="48" height="64" viewBox="0 0 48 64" fill="none" xmlns="http://www.w3.org/2000/svg">
<path d="M39.5819 26.0348V15.8327C39.5819 7.10464 32.4812 0 23.7492 0C15.0192 0 7.9165 7.10464 7.9165 15.8327V26.0348H15.833V15.8327C15.8327 11.4646 19.383 7.91618 23.7492 7.91618C28.1134 7.91618 31.6657 11.4648 31.6657 15.8327V26.0348H39.5819ZM0 35.6235V55.4145C0 59.7864 3.54467 63.3311 7.9165 63.3311H39.5822C43.9537 63.3311 47.4984 59.7864 47.4984 55.4145V35.6235C47.4984 31.2516 43.9537 27.7069 39.5819 27.7069H7.9165C3.54467 27.7073 0 31.2516 0 35.6235ZM23.7492 39.5819C25.9351 39.5819 27.7073 41.3523 27.7073 43.54C27.7073 44.9893 26.8897 46.2032 25.7281 46.8913V53.4353C25.7281 54.5294 24.843 55.4144 23.749 55.4144C22.6549 55.4144 21.7698 54.5293 21.7698 53.4353V46.8913C20.6081 46.2032 19.7906 44.9893 19.7906 43.54C19.7911 41.352 21.5633 39.5819 23.7492 39.5819Z" fill="#ECC13F"/>
</svg>
