<svg width="61" height="51" viewBox="0 0 61 51" fill="none" xmlns="http://www.w3.org/2000/svg">
<path d="M27.0045 23.5766C27.5593 23.0992 28.3463 22.7896 29.3785 22.7121V28.6342C28.1141 28.2342 27.2496 27.7698 26.7722 27.3697C26.2948 26.8924 26.0626 26.3376 26.0626 25.5505C26.14 24.7636 26.4497 24.1314 27.0045 23.5766ZM50.1383 4.54574C49.1061 0.75247 46.1129 -0.666781 42.642 0.287987L11.9991 8.49384H51.1704L50.1383 4.54574ZM60.3311 18.2867V44.6589C60.3311 48.0522 57.6474 50.736 54.2541 50.736H6.07697C2.68367 50.736 0 48.0522 0 44.6589V18.2867C0 14.8934 2.68367 12.2097 6.07697 12.2097H54.2412C57.57 12.2096 60.3311 14.9708 60.3311 18.2867ZM39.3261 36.2852C39.3261 34.311 38.6941 32.8146 37.4295 31.7049C36.1651 30.5952 34.2684 29.8084 31.6623 29.2535H31.5848V22.8538C33.3266 23.0861 34.9781 23.7957 36.4747 24.8279L38.681 21.6668C36.4747 20.1701 34.1007 19.2928 31.5719 19.138V17.3962H29.3656V19.0605C27.1593 19.138 25.4175 19.8476 23.9982 21.112C22.6564 22.3764 21.9468 23.9505 21.9468 25.9246C21.9468 27.8986 22.579 29.3953 23.766 30.35C24.953 31.3822 26.8496 32.1695 29.3785 32.8015V39.4332C27.327 39.1236 25.4304 38.0914 23.4563 36.427L20.9275 39.4332C23.3789 41.5621 26.2174 42.8265 29.3011 43.1491V45.6782H31.5074V43.2268C33.7909 43.1491 35.6874 42.4395 37.1199 41.1753C38.6165 39.8464 39.3261 38.2594 39.3261 36.2852ZM31.5848 33.3693V39.5237C32.6945 39.4461 33.5588 39.1236 34.191 38.5818C34.8231 38.0269 35.1329 37.3948 35.1329 36.6076C35.1329 35.8205 34.9007 35.1884 34.4233 34.7111C33.8814 34.2339 33.004 33.7693 31.5848 33.3693Z" fill="#ECC13F"/>
</svg>
